<?xml version="1.0" standalone="no"?>
<svg preserveAspectRatio="xMidYMid meet" viewBox="2.6837848234271178 -3.5146669515502253 381.3897702611689 82.25648088697943" width="377.39" height="78.26" xmlns="http://www.w3.org/2000/svg" xmlns:xlink="http://www.w3.org/1999/xlink">
        <defs>
            <path d="M95.07 60.95L88.43 56.95L93.22 43.77L75.93 18.77L54.72 24.27L34.93 29.77L20.55 19.1L10.18 31.77" id="cpOv8Y6Ru"></path>
            <path d="M174.79 2.76C177.37 2.76 179.47 4.86 179.47 7.44C179.47 13.04 179.47 25.17 179.47 30.77C179.47 33.35 177.37 35.45 174.79 35.45C161.57 35.45 126.58 35.45 113.35 35.45C110.77 35.45 108.67 33.35 108.67 30.77C108.67 25.17 108.67 13.04 108.67 7.44C108.67 4.86 110.77 2.76 113.35 2.76C126.58 2.76 161.57 2.76 174.79 2.76Z" id="agNcJVAHg"></path><text id="a1qjqRMipJ" x="183" y="91" font-size="29" font-family="Arial, Helvetica, sans-serif" font-weight="300" font-style="normal" letter-spacing="0" alignment-baseline="before-edge" transform="matrix(1 0 0 1 -63.611307076040106 -90.91466084803463)" style="line-height:100%" xml:space="preserve" dominant-baseline="text-before-edge">                <tspan x="183" dy="0.05em" alignment-baseline="before-edge" dominant-baseline="text-before-edge" text-anchor="start">web</tspan>
            </text>
            <text id="cvPED4xOy" x="106.66" y="130" font-size="30" font-family="Arial, Helvetica, sans-serif" font-weight="300" font-style="normal" letter-spacing="0" alignment-baseline="before-edge" transform="matrix(1 0 0 1 -0.2861445783132872 -94)" style="line-height:100%" xml:space="preserve" dominant-baseline="text-before-edge">
                <tspan x="106.66" dy="0em" alignment-baseline="before-edge" dominant-baseline="text-before-edge" text-anchor="start">machinelearning</tspan>
            </text>
            <path d="M88.43 56.95L72.93 59.45L48.22 41.38L10.18 31.77" id="a21WvlZiXo"></path>
            <path d="M79.43 59.45C79.43 63.04 76.52 65.95 72.93 65.95C69.34 65.95 66.43 63.04 66.43 59.45C66.43 55.86 69.34 52.95 72.93 52.95C76.52 52.95 79.43 55.86 79.43 59.45Z" id="g7g8kcl5OU"></path>
            <path d="M93.22 43.77L55.43 24.27L60.22 5.7L36.93 12.27" id="b2Hetrpwpy"></path>
            <path d="M30.43 42.77L34.93 29.77" id="gvyu2zvkY"></path>
            <path d="M48.22 41.38L36.93 13.2" id="b4uMXk2HFY"></path>
            <path d="M60.22 24.27C60.22 27.31 57.76 29.77 54.72 29.77C51.69 29.77 49.22 27.31 49.22 24.27C49.22 21.24 51.69 18.77 54.72 18.77C57.76 18.77 60.22 21.24 60.22 24.27Z" id="e2cboCoAnw"></path>
            <path d="M57.88 24.29C57.88 26.02 56.47 27.43 54.74 27.43C53 27.43 51.6 26.02 51.6 24.29C51.6 22.55 53 21.15 54.74 21.15C56.47 21.15 57.88 22.55 57.88 24.29Z" id="b5dP8xBYVW"></path>
            <path d="M54.72 41.38C54.72 44.96 51.81 47.88 48.22 47.88C44.63 47.88 41.72 44.96 41.72 41.38C41.72 37.79 44.63 34.88 48.22 34.88C51.81 34.88 54.72 37.79 54.72 41.38Z" id="acQNYkRLg"></path>
            <path d="M98.72 42.77C98.72 46.36 95.81 49.27 92.22 49.27C88.63 49.27 85.72 46.36 85.72 42.77C85.72 39.18 88.63 36.27 92.22 36.27C95.81 36.27 98.72 39.18 98.72 42.77Z" id="a6u11scCWb"></path>
            <path d="M95.95 42.79C95.95 44.84 94.29 46.5 92.24 46.5C90.19 46.5 88.53 44.84 88.53 42.79C88.53 40.74 90.19 39.08 92.24 39.08C94.29 39.08 95.95 40.74 95.95 42.79Z" id="d3IERwUKvp"></path>
            <path d="M53.72 56.95L72.43 42.77L75.93 19.1" id="aZDZ8EJL6"></path>
            <path d="M43.43 13.2C43.43 16.79 40.52 19.7 36.93 19.7C33.34 19.7 30.43 16.79 30.43 13.2C30.43 9.61 33.34 6.7 36.93 6.7C40.52 6.7 43.43 9.61 43.43 13.2Z" id="k2Lr7fZfVD"></path>
            <path d="M64.22 5.7C64.22 7.91 62.43 9.7 60.22 9.7C58.01 9.7 56.22 7.91 56.22 5.7C56.22 3.49 58.01 1.7 60.22 1.7C62.43 1.7 64.22 3.49 64.22 5.7Z" id="duDJVrz5n"></path>
            <path d="M62.52 5.71C62.52 6.97 61.49 7.99 60.23 7.99C58.97 7.99 57.95 6.97 57.95 5.71C57.95 4.45 58.97 3.43 60.23 3.43C61.49 3.43 62.52 4.45 62.52 5.71Z" id="ayIbKo1Nt"></path>
            <path d="M76.43 42.77C76.43 44.98 74.64 46.77 72.43 46.77C70.22 46.77 68.43 44.98 68.43 42.77C68.43 40.56 70.22 38.77 72.43 38.77C74.64 38.77 76.43 40.56 76.43 42.77Z" id="c1eIlO5ldd"></path>
            <path d="M74.72 42.78C74.72 44.04 73.7 45.07 72.44 45.07C71.18 45.07 70.16 44.04 70.16 42.78C70.16 41.52 71.18 40.5 72.44 40.5C73.7 40.5 74.72 41.52 74.72 42.78Z" id="f4mnf1tza5"></path>
            <path d="M24.55 18.77C24.55 20.98 22.75 22.77 20.55 22.77C18.34 22.77 16.55 20.98 16.55 18.77C16.55 16.56 18.34 14.77 20.55 14.77C22.75 14.77 24.55 16.56 24.55 18.77Z" id="aa2XZ5M5O"></path>
            <path d="M22.84 18.78C22.84 20.04 21.82 21.07 20.56 21.07C19.3 21.07 18.27 20.04 18.27 18.78C18.27 17.52 19.3 16.5 20.56 16.5C21.82 16.5 22.84 17.52 22.84 18.78Z" id="dQ6drDsUu"></path>
            <path d="M92.43 56.95C92.43 59.16 90.64 60.95 88.43 60.95C86.22 60.95 84.43 59.16 84.43 56.95C84.43 54.74 86.22 52.95 88.43 52.95C90.64 52.95 92.43 54.74 92.43 56.95Z" id="bmHV9Syt6"></path>
            <path d="M90.72 56.96C90.72 58.22 89.7 59.25 88.44 59.25C87.18 59.25 86.16 58.22 86.16 56.96C86.16 55.7 87.18 54.68 88.44 54.68C89.7 54.68 90.72 55.7 90.72 56.96Z" id="a3HX1GiA1O"></path>
            <path d="M82.43 18.77C82.43 22.36 79.52 25.27 75.93 25.27C72.34 25.27 69.43 22.36 69.43 18.77C69.43 15.18 72.34 12.27 75.93 12.27C79.52 12.27 82.43 15.18 82.43 18.77Z" id="a16Bhbi6AS"></path>
            <path d="M57.72 56.95C57.72 59.16 55.93 60.95 53.72 60.95C51.51 60.95 49.72 59.16 49.72 56.95C49.72 54.74 51.51 52.95 53.72 52.95C55.93 52.95 57.72 54.74 57.72 56.95Z" id="e76e3RoHAb"></path>
            <path d="M56.02 56.96C56.02 58.22 54.99 59.25 53.73 59.25C52.47 59.25 51.45 58.22 51.45 56.96C51.45 55.7 52.47 54.68 53.73 54.68C54.99 54.68 56.02 55.7 56.02 56.96Z" id="ca4XnnYOF"></path>
            <path d="M38.93 29.77C38.93 31.98 37.14 33.77 34.93 33.77C32.72 33.77 30.93 31.98 30.93 29.77C30.93 27.56 32.72 25.77 34.93 25.77C37.14 25.77 38.93 27.56 38.93 29.77Z" id="a1BPZprC6p"></path>
            <path d="M37.22 29.78C37.22 31.04 36.2 32.07 34.94 32.07C33.68 32.07 32.66 31.04 32.66 29.78C32.66 28.52 33.68 27.5 34.94 27.5C36.2 27.5 37.22 28.52 37.22 29.78Z" id="e1V3QTZxiP"></path>
            <path d="M16.68 31.77C16.68 35.36 13.77 38.27 10.18 38.27C6.6 38.27 3.68 35.36 3.68 31.77C3.68 28.18 6.6 25.27 10.18 25.27C13.77 25.27 16.68 28.18 16.68 31.77Z" id="b1CDYu5y1P"></path>
            <path d="" id="l4Kyxf2AdM"></path>
        </defs>
        <g>
            <g>
                <g>
                    <use xlink:href="#cpOv8Y6Ru" opacity="1" fill-opacity="0" stroke="#ffffff" stroke-width="1" stroke-opacity="1"></use>
                </g>
            </g>
            <g>
                <use xlink:href="#agNcJVAHg" opacity="1" fill="#ffffff" fill-opacity="1"></use>
            </g>
            <g id="c2qC5pZasR">
                <use xlink:href="#a1qjqRMipJ" opacity="1" fill="#4777c0" fill-opacity="1"></use>
            </g>
            <g id="asK9Mn2P0">
                <use xlink:href="#cvPED4xOy" opacity="1" fill="#ffffff" fill-opacity="1"></use>
            </g>
            <g>
                <g>
                    <use xlink:href="#a21WvlZiXo" opacity="1" fill-opacity="0" stroke="#ffffff" stroke-width="1" stroke-opacity="1"></use>
                </g>
            </g>
            <g>
                <use xlink:href="#g7g8kcl5OU" opacity="1" fill="#ffffff" fill-opacity="1"></use>
            </g>
            <g>
                <g>
                    <use xlink:href="#b2Hetrpwpy" opacity="1" fill-opacity="0" stroke="#ffffff" stroke-width="1" stroke-opacity="1"></use>
                </g>
            </g>
            <g>
                <g>
                    <use xlink:href="#gvyu2zvkY" opacity="1" fill-opacity="0" stroke="#ffffff" stroke-width="1" stroke-opacity="1"></use>
                </g>
            </g>
            <g>
                <g>
                    <use xlink:href="#b4uMXk2HFY" opacity="1" fill-opacity="0" stroke="#ffffff" stroke-width="1" stroke-opacity="1"></use>
                </g>
            </g>
            <g>
                <use xlink:href="#e2cboCoAnw" opacity="1" fill="#ffffff" fill-opacity="1"></use>
            </g>
            <g>
                <use xlink:href="#b5dP8xBYVW" opacity="1" fill="#4777c0" fill-opacity="1"></use>
            </g>
            <g>
                <use xlink:href="#acQNYkRLg" opacity="1" fill="#ffffff" fill-opacity="1"></use>
            </g>
            <g>
                <use xlink:href="#a6u11scCWb" opacity="1" fill="#ffffff" fill-opacity="1"></use>
            </g>
            <g>
                <use xlink:href="#d3IERwUKvp" opacity="1" fill="#4777c0" fill-opacity="1"></use>
            </g>
            <g>
                <g>
                    <use xlink:href="#aZDZ8EJL6" opacity="1" fill-opacity="0" stroke="#ffffff" stroke-width="1" stroke-opacity="1"></use>
                </g>
            </g>
            <g>
                <use xlink:href="#k2Lr7fZfVD" opacity="1" fill="#ffffff" fill-opacity="1"></use>
            </g>
            <g>
                <use xlink:href="#duDJVrz5n" opacity="1" fill="#ffffff" fill-opacity="1"></use>
            </g>
            <g>
                <use xlink:href="#ayIbKo1Nt" opacity="1" fill="#4777c0" fill-opacity="1"></use>
            </g>
            <g>
                <use xlink:href="#c1eIlO5ldd" opacity="1" fill="#ffffff" fill-opacity="1"></use>
            </g>
            <g>
                <use xlink:href="#f4mnf1tza5" opacity="1" fill="#4777c0" fill-opacity="1"></use>
            </g>
            <g>
                <use xlink:href="#aa2XZ5M5O" opacity="1" fill="#ffffff" fill-opacity="1"></use>
            </g>
            <g>
                <use xlink:href="#dQ6drDsUu" opacity="1" fill="#4777c0" fill-opacity="1"></use>
            </g>
            <g>
                <use xlink:href="#bmHV9Syt6" opacity="1" fill="#ffffff" fill-opacity="1"></use>
            </g>
            <g>
                <use xlink:href="#a3HX1GiA1O" opacity="1" fill="#4777c0" fill-opacity="1"></use>
            </g>
            <g>
                <use xlink:href="#a16Bhbi6AS" opacity="1" fill="#ffffff" fill-opacity="1"></use>
            </g>
            <g>
                <use xlink:href="#e76e3RoHAb" opacity="1" fill="#ffffff" fill-opacity="1"></use>
            </g>
            <g>
                <use xlink:href="#ca4XnnYOF" opacity="1" fill="#4777c0" fill-opacity="1"></use>
            </g>
            <g>
                <use xlink:href="#a1BPZprC6p" opacity="1" fill="#ffffff" fill-opacity="1"></use>
            </g>
            <g>
                <use xlink:href="#e1V3QTZxiP" opacity="1" fill="#4777c0" fill-opacity="1"></use>
            </g>
            <g>
                <use xlink:href="#b1CDYu5y1P" opacity="1" fill="#ffffff" fill-opacity="1"></use>
            </g>
            <g>
                <g>
                    <use xlink:href="#l4Kyxf2AdM" opacity="1" fill-opacity="0" stroke="#61bafb" stroke-width="1" stroke-opacity="1"></use>
                </g>
            </g>
        </g>
    </svg>